# xmcd
#
# Track frame offsets:
#	150
#	15849
#	30358
#	41300
#	53568
#	65487
#	77467
#	90325
#	102981
#	116860
#	142055
#	156053
#	168719
#	182652
#	201260
#	216524
#	235849
#	247635
#	265812
#	277737
#	294748
#	320840
#
# Disc length: 4482 seconds
#
# Revision: 0
# Processed by: cddbd v1.5.1PL0 Copyright (c) Steve Scherf et al.
# Submitted via: dBpowerAMP V4.0
#
DISCID=2a118016
DTITLE=Edu da Gaita - O Mago da Gaita
DYEAR=1900
DGENRE=Blues
TTITLE0=Dança  Ritual do Fogo
TTITLE1=Fumaça nos Teus Olhos
TTITLE2=Violino Cigano
TTITLE3=Canção da Índia
TTITLE4=Le Grisby
TTITLE5=Numa Pequena Cidade Espanhola
TTITLE6=Malague`na/Andaluzia
TTITLE7=Moritat
TTITLE8=Sonny Boy
TTITLE9=Poeta and CAmponez
TTITLE10=Ruby
TTITLE11=Stranger in Paradise
TTITLE12=No Jardim de Um Templo Chinês
TTITLE13=Deep Purple
TTITLE14=Pagannini
TTITLE15=Vous che Passez Sans Me Voir
TTITLE16=Poema
TTITLE17=Fantasia Espanhola
TTITLE18=Frasquita
TTITLE19=Jeaninne
TTITLE20=Ritmos de Tio Sam
TTITLE21=Moto Perpétuo
EXTD=
EXTT0=
EXTT1=
EXTT2=
EXTT3=
EXTT4=
EXTT5=
EXTT6=
EXTT7=
EXTT8=
EXTT9=
EXTT10=
EXTT11=
EXTT12=
EXTT13=
EXTT14=
EXTT15=
EXTT16=
EXTT17=
EXTT18=
EXTT19=
EXTT20=
EXTT21=
PLAYORDER=
